<?xml version="1.0" encoding="UTF-8"?>
<svg width="30px" height="30px" viewBox="0 0 30 30" version="1.1" xmlns="http://www.w3.org/2000/svg" xmlns:xlink="http://www.w3.org/1999/xlink">
    <title>中英</title>
    <g id="V2" stroke="none" stroke-width="1" fill="none" fill-rule="evenodd">
        <g id="EN/CN-Dark-Mode" transform="translate(-1292, -14)">
            <g id="编组-9" transform="translate(1292, 13)">
                <g id="中英" transform="translate(0, 1)">
                    <rect id="矩形" x="0" y="0" width="30" height="30"></rect>
                    <path d="M6.28571427,18 L6.28571427,20.3333333 C6.28533574,21.5543956 7.20722624,22.5692537 8.4,22.6608333 L8.57142858,22.6666667 L12,22.6666667 L12,25 L8.57142858,25 C6.04669829,25 4,22.9106622 4,20.3333333 L4,18 L6.28571427,18 L6.28571427,18 Z M21.7032133,12 L27,25 L24.4057783,25 L22.9599963,21.4545455 L18.0363923,21.4545455 L16.5930179,25 L14,25 L19.2955829,12 L21.7032133,12 Z M20.5012038,15 L19,19 L22,19 L20.5012038,15 Z M10.8,5.66666667 L10.8,7.22222223 L14,7.22222223 L14,12.6666667 L10.8,12.6666667 L10.8,15 L9.2,15 L9.2,12.6666667 L6,12.6666667 L6,7.22222223 L9.2,7.22222223 L9.2,5.66666667 L10.8,5.66666667 Z M20.4285714,4 C22.9533017,4 25,6.08933784 25,8.66666668 L25,11 L22.7142857,11 L22.7142857,8.66666668 C22.7142857,8.04782819 22.4734701,7.45433572 22.0448155,7.01675083 C21.6161609,6.57916594 21.0347806,6.33333332 20.4285714,6.33333332 L17,6.33333332 L17,4 L20.4285714,4 L20.4285714,4 Z M8.66666667,9 L7.33333333,9 L7.33333333,11 L8.66666667,11 L8.66666667,9 Z M12,9 L10.6666667,9 L10.6666667,11 L12,11 L12,9 Z" id="形状" fill="#bababaff" fill-rule="nonzero"></path>
                </g>
            </g>
        </g>
    </g>
</svg>