<?xml version="1.0" encoding="UTF-8"?>
<svg width="30px" height="30px" viewBox="0 0 30 30" version="1.1" xmlns="http://www.w3.org/2000/svg" xmlns:xlink="http://www.w3.org/1999/xlink">
    <title>中英</title>
    <g id="V2" stroke="none" stroke-width="1" fill="none" fill-rule="evenodd">
        <g id="EN/CN-Dark-Mode" transform="translate(-1292, -115)">
            <g id="Top-Nav" transform="translate(0, 101)">
                <g id="编组-9" transform="translate(1292, 13)">
                    <g id="中英" transform="translate(0, 1)">
                        <rect id="矩形" x="0" y="0" width="30" height="30"></rect>
                        <path d="M6.28571427,18 L6.28571427,20.3333333 C6.28533574,21.5543956 7.20722624,22.5692537 8.4,22.6608333 L8.57142858,22.6666667 L12,22.6666667 L12,25 L8.57142858,25 C6.04669829,25 4,22.9106622 4,20.3333333 L4,18 L6.28571427,18 L6.28571427,18 Z M20.7404389,15 L24,23 L22.4035559,23 L21.5138439,20.8181818 L18.4839337,20.8181818 L17.5957033,23 L16,23 L19.2588203,15 L20.7404389,15 Z M20.0007408,16.8461538 L19.0769231,19.3076923 L20.9230769,19.3076923 L20.0007408,16.8461538 Z M10.2,3 L10.2,5.33333335 L15,5.33333335 L15,13.5 L10.2,13.5 L10.2,17 L7.80000001,17 L7.80000001,13.5 L3,13.5 L3,5.33333335 L7.80000001,5.33333335 L7.80000001,3 L10.2,3 Z M20.4285714,4 C22.9533017,4 25,6.08933784 25,8.66666668 L25,11 L22.7142857,11 L22.7142857,8.66666668 C22.7142857,8.04782819 22.4734701,7.45433572 22.0448155,7.01675083 C21.6161609,6.57916594 21.0347806,6.33333332 20.4285714,6.33333332 L17,6.33333332 L17,4 L20.4285714,4 L20.4285714,4 Z M7,8 L5,8 L5,11 L7,11 L7,8 Z M12,8 L10,8 L10,11 L12,11 L12,8 Z" id="形状备份" fill="#bababaff" fill-rule="nonzero"></path>
                    </g>
                </g>
            </g>
        </g>
    </g>
</svg>