<svg t="1691479074628" class="icon" viewBox="0 0 1024 1024" version="1.1" xmlns="http://www.w3.org/2000/svg" p-id="2846" width="200" height="200"><path d="M867.5 529.7c-6.7-36.5-18.7-71.3-35.7-103.3-6.2-11.7-13.2-23.4-20-34.7-21.9-36.7-44.6-74.6-43.9-116.6 0-2.2 0.1-4.5 0.2-6.8 0.5-12.2 1-24.7-6.4-34.6-8.6-11.6-24.5-13.8-36.5-10.7-13.1 3.4-23.8 12.1-32.5 20.1-28.3 26.2-50.2 59-63.6 95.1-34.5-55.6-41.5-127.5-18.2-188.8 1.2-3.1 2.5-6.2 3.7-9.3 3.9-9.8 8-19.8 9.5-30.6 1.8-13-0.8-30.3-13.5-39.9-13.1-9.8-32.2-8.8-57 2.9-58.5 27.8-110.7 71.1-150.8 125.2-38.6 52.1-64.4 111.9-74.8 173.4-3.9-8.5-6-18.4-8.1-28.1-4-18.9-8.2-38.4-26.2-45.8-21.9-9-44.7 10-56.3 22.1-26.8 27.8-48.6 60.8-64.9 98.1-15.5 35.6-25.6 74.1-30 114.6-8.7 80.3 5.8 162.4 40.7 231.2 28.5 56.2 72.8 104.8 128.1 140.5 55.2 35.7 117.6 56.1 180.6 59.1 5.3 0.3 10.7 0.4 16.1 0.4 57.7 0 115.9-14.5 169.3-42.4 58.4-30.3 107.1-74.4 140.8-127.6 48.1-75.9 66.1-171.9 49.4-263.5zM733.8 408.6c5.9 9.6 9.9 20.2 15.5 30 8.6 14.9 16.5 30.1 23.2 46 12.3 29.2 20.7 60.1 24 91.6l-0.5-0.2 0.3 4.3c0.4 5.8 0.6 11.7 0.6 17.6 0 158.7-129.2 287.8-288.1 287.8-81 0-158.6-34.4-213.2-94.4-30.3-33.4-51.9-74.4-62.4-118.7-7.5-31.7-8.4-64.9-9.2-97l-0.3-10.1c-0.8-29.8-1.6-60.5 7.2-89 3.8-12.2 8.7-24.4 14.5-36.2 0.6-1.2 3.2-5.2 5.9-9.3 5.7-8.6 9.1-14 11.1-17.6 17.1 38.2 42.4 73.1 73.6 101 7.2 11 19.3 17.6 32.5 17.6 2.4 0 4.7-0.2 7.2-0.6 6.7-1.2 12.9-4.2 17.9-8.5 2.2-1.8 4.2-3.7 6-5.8 9.5-11.4 11.6-27.4 5.4-40.9-3.9-25.9-4.5-52.6-1.6-79.4 9-83.6 52.1-160.2 118.4-211-1.5 12.2-2.2 24.6-2.2 36.7 0 89.7 39 174.7 106.9 233.3 8.5 7.3 19.7 10.5 30.7 8.9 10.7-1.6 20.2-7.7 25.9-16.7 9.2-14.4 10.8-31.2 12.4-47.5 1-10.9 2.2-22.1 5.6-32.3 5.1 6.1 10.2 12.2 15.4 18.3 3.6 4.3 7.3 8.7 10.9 13 2.4 2.9 4.5 5.9 6.4 9.1z" p-id="2847"></path></svg>
