<svg t="1691479005805" class="icon" viewBox="0 0 1024 1024" version="1.1" xmlns="http://www.w3.org/2000/svg" p-id="1788" width="200" height="200"><path d="M332.8 896a44.8 44.8 0 0 1-44.8-44.8 44.8 44.8 0 0 1 44.8-44.8h358.4a44.8 44.8 0 0 1 44.8 44.8 44.8 44.8 0 0 1-44.8 44.8z m-108.8-140.8a128 128 0 0 1-128-128V268.8a128 128 0 0 1 128-128h576a128 128 0 0 1 128 128v358.4a128 128 0 0 1-128 128z m-38.4-128a38.4 38.4 0 0 0 38.4 38.4h576a38.4 38.4 0 0 0 38.4-38.4v-12.8H185.6z m652.8-89.6V268.8a38.4 38.4 0 0 0-38.4-38.4h-576a38.4 38.4 0 0 0-38.4 38.4v268.8z" fill="#000000" fill-opacity="0.9" p-id="1789"></path></svg>
