<svg t="1691478669300" class="icon" viewBox="0 0 1024 1024" version="1.1" xmlns="http://www.w3.org/2000/svg" p-id="1359" width="200" height="200"><path d="M618.816 876.416V800H550.912v76.416A38.976 38.976 0 0 1 512 915.2a38.912 38.912 0 0 1-38.848-38.784V800H405.12v76.416a38.912 38.912 0 0 1-38.848 38.784 38.848 38.848 0 0 1-38.784-38.784v-78.784a128 128 0 0 1-100.992-100.992H147.84a38.848 38.848 0 0 1-38.912-38.784 38.784 38.784 0 0 1 38.912-38.784h76.224V551.104H147.84a38.976 38.976 0 0 1-38.912-38.976 38.848 38.848 0 0 1 38.912-38.784h76.224V405.248H147.84a38.72 38.72 0 0 1-38.912-38.4 38.912 38.912 0 0 1 38.912-38.976h78.656a128 128 0 0 1 100.992-101.12V148.224a38.912 38.912 0 0 1 38.784-38.976 38.912 38.912 0 0 1 38.848 38.976v76.096h68.032V148.224A38.912 38.912 0 0 1 512 109.248a39.04 39.04 0 0 1 38.912 38.976v76.096h67.904V148.224a38.912 38.912 0 0 1 38.912-38.976 38.848 38.848 0 0 1 38.784 38.976v78.528a128 128 0 0 1 101.12 101.12h78.656a38.912 38.912 0 0 1 38.848 38.976 38.784 38.784 0 0 1-38.848 38.4h-76.224v68.096h76.224a38.912 38.912 0 0 1 38.848 38.784 38.976 38.976 0 0 1-38.848 38.976h-76.224v68.032h76.224a38.784 38.784 0 0 1 38.848 38.784 38.912 38.912 0 0 1-38.848 38.784h-78.656a128 128 0 0 1-101.12 100.992v78.784a38.848 38.848 0 0 1-38.784 38.784 38.848 38.848 0 0 1-38.912-38.848z m-305.28-524.352v320a38.4 38.4 0 0 0 38.4 38.4h320a38.4 38.4 0 0 0 38.4-38.4v-320a38.4 38.4 0 0 0-38.4-38.4h-320a38.4 38.4 0 0 0-38.336 38.4z m149.76 257.28a48.64 48.64 0 0 1-48.512-48.64V463.552a48.64 48.64 0 0 1 48.512-48.64H560.64a48.576 48.576 0 0 1 48.512 48.64v97.152a48.576 48.576 0 0 1-48.512 48.64z m9.792-58.304h77.696V473.28H473.088z" fill="#000000" fill-opacity="0.9" p-id="1360"></path></svg>
