<svg t="1691478526854" class="icon" viewBox="0 0 1024 1024" version="1.1" xmlns="http://www.w3.org/2000/svg" p-id="1073" width="200" height="200"><path d="M512 858.56a137.984 137.984 0 0 0-110.208 54.656 418.304 418.304 0 0 1-181.952-105.216 137.856 137.856 0 0 0-8-122.56 137.216 137.216 0 0 0-102.4-68.224A418.176 418.176 0 0 1 96.064 512a415.296 415.296 0 0 1 13.504-105.152 137.792 137.792 0 0 0 102.4-68.032 137.6 137.6 0 0 0 7.872-122.624 415.168 415.168 0 0 1 182.144-105.408 137.856 137.856 0 0 0 110.208 54.656 137.856 137.856 0 0 0 110.272-54.656 417.344 417.344 0 0 1 182.016 105.216 137.92 137.92 0 0 0 7.872 122.752 138.368 138.368 0 0 0 102.4 68.16 416 416 0 0 1 13.376 105.024 416.512 416.512 0 0 1-13.376 105.216 137.28 137.28 0 0 0-102.4 68.224 137.664 137.664 0 0 0-7.872 122.688 418.752 418.752 0 0 1-181.824 105.088A138.816 138.816 0 0 0 512 858.56z m121.6-50.56a317.504 317.504 0 0 0 73.856-42.624 202.816 202.816 0 0 1 26.048-125.44 202.624 202.624 0 0 1 95.616-85.376 323.968 323.968 0 0 0 2.752-42.496 301.632 301.632 0 0 0-2.88-42.688A203.328 203.328 0 0 1 733.568 384a203.072 203.072 0 0 1-26.176-125.248 324.16 324.16 0 0 0-73.92-42.88 201.984 201.984 0 0 1-121.6 40.128 202.432 202.432 0 0 1-121.6-40.128 327.68 327.68 0 0 0-73.92 42.88A203.072 203.072 0 0 1 290.176 384a202.88 202.88 0 0 1-95.424 85.312 308.672 308.672 0 0 0-2.88 42.752 308.544 308.544 0 0 0 2.88 42.496 203.776 203.776 0 0 1 95.488 85.376 203.52 203.52 0 0 1 26.176 125.44 318.912 318.912 0 0 0 73.728 42.624 203.264 203.264 0 0 1 121.6-40 202.496 202.496 0 0 1 121.856 40zM307.2 512A204.8 204.8 0 0 1 512 307.2 204.8 204.8 0 0 1 716.8 512 204.8 204.8 0 0 1 512 716.8 204.8 204.8 0 0 1 307.2 512zM384 512a128 128 0 0 0 128 128 128 128 0 0 0 128-128 128 128 0 0 0-128-128 128 128 0 0 0-128 128z" fill="#000000" fill-opacity="0.9" p-id="1074"></path></svg>
